# xmcd CD database file
#
# Track frame offsets:
#	150
#	21079
#	55557
#	72815
#	93753
#	130122
#	157722
#	183256
#	203181
#	227314
#	268535
#	280726
#	307432
#
# Disc length: 4277 seconds
#
# Revision: 1
# Processed by: cddbd v1.5.1PL0 Copyright (c) Steve Scherf et al.
# Submitted via: CDex 1.51
#
DISCID=a010b30d
DTITLE=Various Artist - Blue Note: A Story of Jazz CD3
DYEAR=2005
DGENRE=Jazz
TTITLE0=US3 - Cantaloop
TTITLE1=Madlib - Steppin' Into Tomorrow
TTITLE2=4hero/H.Silver - Won't You Open Your Senses
TTITLE3=Troublemakers - Lemon
TTITLE4=Erik Truffaz - Bending New Corners
TTITLE5=Marc Moulin - Silver
TTITLE6=Nicola Conte - Kind of Sunshine
TTITLE7=Medeski, Martin and Wood - Anonymous Skulls
TTITLE8=Soulive - Romantic
TTITLE9=Jason Moran - Planet Rock
TTITLE10=Amos Lee - Colors
TTITLE11=Angela McCluskey - Don't Explain
TTITLE12=Raul Midon - Devil May Care
EXTD=YEAR: 2005
EXTT0=
EXTT1=
EXTT2=
EXTT3=
EXTT4=
EXTT5=
EXTT6=
EXTT7=
EXTT8=
EXTT9=
EXTT10=
EXTT11=
EXTT12=
PLAYORDER=
